<svg version="1.1" id="Capa_1" xmlns="http://www.w3.org/2000/svg" xmlns:xlink="http://www.w3.org/1999/xlink" x="0px" y="0px" viewBox="0 0 512 512" style="enable-background:new 0 0 512 512;" xml:space="preserve"><path style="fill:#C1001F;" d="M452,188.225l-30,54.296V406l30,30h15c24.814,0,45-20.186,45-45V139.633L452,188.225z"></path><path style="fill:#E50027;" d="M60,188.231L0,139.636V391c0,24.814,20.186,45,45,45h15l30-30V242.529L60,188.231z"></path><g><polygon style="fill:#CAE8F9;" points="448.4,76 256,309.699 63.6,76 "></polygon><path style="fill:#CAE8F9;" d="M452,188.2V436H60V188.2l164.2,132.299c8.399,8.401,20.1,12.601,31.8,12.601 c11.7,0,23.401-4.2,31.8-12.601L452,188.2z"></path></g><g><path style="fill:#B7E0F6;" d="M452,188.2V436H256V333.1c11.7,0,23.401-4.2,31.8-12.601L452,188.2z"></path><polygon style="fill:#B7E0F6;" points="448.4,76 256,309.699 256,76 "></polygon></g><path style="fill:#FD003A;" d="M512,121v18.6L310.101,341.499c-14.101,14.4-34.002,21.9-54.101,21.9s-39-7.5-53.101-21.899L0,139.6 V121c0-24.3,20.099-45,45-45h18.6L256,267.4L448.4,76H467C491.901,76,512,96.7,512,121z"></path><path style="fill:#E50027;" d="M512,121v18.6L310.101,341.499c-14.101,14.4-34.002,21.9-54.101,21.9V267.4L448.4,76H467 C491.901,76,512,96.7,512,121z"></path></svg>